<?xml version="1.0" standalone="no"?>
<!DOCTYPE svg PUBLIC "-//W3C//DTD SVG 20010904//EN"
 "http://www.w3.org/TR/2001/REC-SVG-20010904/DTD/svg10.dtd">
<svg version="1.0" xmlns="http://www.w3.org/2000/svg"
 width="700.000000pt" height="700.000000pt" viewBox="0 0 700.000000 700.000000"
 preserveAspectRatio="xMidYMid meet">
<metadata>
Created by potrace 1.13, written by Peter Selinger 2001-2015
</metadata>
<g transform="translate(0.000000,700.000000) scale(0.100000,-0.100000)"
fill="#FFFFFF" stroke="none">
<path d="M770 5060 l0 -1340 315 0 315 0 0 505 0 505 883 0 c567 0 905 4 947
11 144 23 287 124 348 245 63 125 63 129 60 606 -4 482 -2 462 -79 587 -57 94
-186 184 -299 210 -30 7 -460 11 -1267 11 l-1223 0 0 -1340z m2166 844 c18 -9
44 -33 56 -53 22 -34 23 -48 26 -251 3 -135 0 -234 -7 -266 -13 -55 -46 -95
-94 -113 -19 -8 -270 -11 -768 -11 l-739 0 0 355 0 355 746 0 c664 0 750 -2
780 -16z"/>
<path d="M5845 5658 c-105 -72 -266 -183 -360 -248 -163 -112 -382 -263 -845
-583 -118 -82 -289 -199 -379 -260 -143 -98 -160 -112 -140 -118 13 -4 99 -15
192 -24 162 -16 168 -16 195 3 15 10 108 75 207 144 99 68 290 200 425 293
135 92 288 198 340 235 52 36 179 124 283 195 168 115 188 132 196 164 56 214
82 323 79 326 -2 2 -89 -55 -193 -127z"/>
<path d="M5303 4832 c-78 -53 -144 -100 -148 -103 -3 -4 115 -191 264 -417
l269 -410 10 -173 c5 -96 7 -177 5 -181 -3 -7 -134 -98 -638 -446 -115 -80
-295 -205 -400 -277 -104 -72 -287 -198 -405 -280 -118 -82 -294 -203 -390
-270 -96 -67 -278 -193 -405 -280 -126 -87 -309 -213 -405 -280 -473 -328
-542 -375 -551 -375 -5 0 -80 32 -167 71 -156 70 -157 71 -201 132 -291 402
-524 723 -530 729 -5 6 -274 -171 -304 -201 -4 -4 24 -90 62 -192 38 -101 149
-398 246 -659 97 -261 200 -538 229 -615 l53 -140 54 -32 c107 -64 368 -151
534 -179 287 -48 576 -22 870 77 163 56 471 221 434 233 -8 2 -81 19 -164 37
-82 17 -152 33 -153 35 -2 1 55 42 127 90 l130 86 183 -31 c101 -18 188 -34
195 -36 6 -2 125 75 265 171 139 97 325 225 413 285 88 61 230 158 315 217 85
60 252 175 370 256 118 82 217 152 220 157 3 5 21 92 40 195 l34 187 113 84
c63 46 120 86 128 90 19 7 19 -5 -5 -157 -30 -188 -33 -181 53 -114 250 198
406 386 527 639 155 321 215 639 179 954 l-12 99 -491 428 c-270 236 -513 450
-541 475 -104 94 -253 219 -261 219 -5 -1 -73 -45 -151 -98z"/>
<path d="M2100 3073 c-69 -47 -210 -145 -315 -218 -104 -72 -293 -203 -420
-290 -126 -87 -309 -213 -405 -280 -96 -67 -285 -198 -419 -290 -214 -149
-241 -170 -220 -176 43 -13 348 -41 361 -33 14 8 175 119 448 309 96 67 285
197 420 290 408 281 585 406 592 419 10 18 89 337 86 347 -2 5 -59 -30 -128
-78z"/>
</g>
</svg>
