<?xml version="1.0" standalone="no"?>
<!DOCTYPE svg PUBLIC "-//W3C//DTD SVG 20010904//EN"
 "http://www.w3.org/TR/2001/REC-SVG-20010904/DTD/svg10.dtd">
<svg version="1.0" xmlns="http://www.w3.org/2000/svg"
 width="512.000000pt" height="512.000000pt" viewBox="0 0 512.000000 512.000000"
 preserveAspectRatio="xMidYMid meet">
<metadata>
Created by potrace 1.13, written by Peter Selinger 2001-2015
</metadata>
<g transform="translate(0.000000,512.000000) scale(0.100000,-0.100000)"
fill="#818181" stroke="none">
<path d="M1630 4240 c-47 -4 -137 -17 -200 -29 -297 -53 -383 -91 -520 -230
-52 -53 -120 -134 -151 -181 -181 -274 -394 -820 -498 -1275 -71 -307 -141
-813 -144 -1030 -2 -147 21 -230 96 -342 80 -121 200 -206 357 -254 97 -30
255 -32 345 -5 150 45 314 157 436 297 31 35 150 192 264 349 114 157 230 307
259 334 259 249 1113 249 1372 0 29 -27 149 -182 267 -344 118 -162 241 -324
274 -359 117 -129 275 -234 419 -277 88 -27 247 -25 344 5 157 48 277 133 357
254 75 112 98 195 96 342 -3 217 -73 723 -144 1030 -104 455 -317 1001 -498
1275 -31 47 -99 128 -151 181 -75 76 -111 104 -170 133 -139 68 -448 128 -665
129 -145 1 -221 -12 -311 -53 -96 -43 -140 -90 -196 -207 -26 -56 -48 -106
-48 -111 0 -14 -91 -22 -260 -22 -169 0 -260 8 -260 22 0 5 -22 55 -49 111
-57 119 -97 163 -191 205 -109 49 -263 68 -430 52z m247 -293 c35 -8 71 -21
82 -31 10 -9 35 -58 56 -107 61 -147 111 -201 211 -226 131 -32 570 -28 699 8
64 18 123 87 174 204 51 118 59 128 109 143 106 32 276 22 517 -29 167 -35
207 -53 280 -126 222 -222 502 -915 614 -1518 49 -267 93 -614 95 -760 1 -91
-2 -105 -27 -157 -45 -92 -134 -155 -253 -178 -77 -15 -156 -2 -244 42 -110
56 -210 166 -455 503 -121 165 -247 327 -280 361 -131 129 -334 216 -596 255
-109 16 -489 16 -598 0 -262 -39 -465 -126 -596 -255 -33 -34 -157 -194 -275
-356 -245 -336 -351 -454 -460 -508 -88 -44 -167 -57 -244 -42 -119 23 -208
86 -253 178 -26 52 -28 65 -26 162 4 225 77 711 154 1029 94 383 293 880 444
1107 66 98 151 185 208 213 51 25 292 77 410 90 122 13 185 12 254 -2z"/>
<path d="M3460 3537 c-48 -15 -126 -95 -139 -143 -26 -94 -7 -172 58 -234 74
-73 165 -89 256 -46 28 13 60 34 72 47 34 37 63 110 63 159 0 52 -35 134 -71
167 -60 55 -158 76 -239 50z m138 -160 c44 -40 22 -118 -40 -140 -10 -3 -32
-1 -49 5 -67 23 -71 125 -5 154 36 15 62 10 94 -19z"/>
<path d="M1335 3471 c-40 -17 -44 -34 -47 -172 l-3 -134 -136 -3 c-184 -4
-174 9 -174 -218 0 -227 -8 -218 180 -222 l135 -4 0 -133 c0 -132 0 -134 26
-154 24 -19 40 -21 185 -21 87 0 169 4 182 9 36 14 47 59 47 187 l0 114 114 0
c120 0 170 11 186 40 6 10 10 93 10 183 0 224 6 217 -175 217 l-133 0 -4 135
c-4 186 3 179 -211 182 -89 1 -171 -1 -182 -6z m247 -277 c4 -178 0 -174 179
-174 l129 0 0 -75 0 -75 -117 0 c-65 0 -128 -3 -141 -6 -40 -11 -52 -52 -52
-184 l0 -120 -75 0 -75 0 0 130 c0 126 -1 132 -25 155 -23 24 -29 25 -155 25
l-130 0 0 75 0 75 132 0 c181 0 178 -3 178 177 l0 133 74 0 74 0 4 -136z"/>
<path d="M3043 3149 c-80 -39 -126 -117 -125 -210 0 -126 98 -222 227 -222
131 0 226 96 226 230 0 92 -54 174 -138 210 -50 20 -141 17 -190 -8z m158
-148 c37 -38 38 -79 3 -115 -54 -53 -144 -18 -144 56 1 80 85 115 141 59z"/>
<path d="M3813 3149 c-169 -83 -167 -324 2 -412 83 -43 200 -21 267 50 107
113 65 309 -79 370 -50 20 -141 17 -190 -8z m158 -148 c37 -37 38 -78 4 -115
-49 -53 -145 -16 -145 56 0 38 48 88 85 88 16 0 38 -12 56 -29z"/>
<path d="M3472 2785 c-167 -52 -217 -262 -91 -382 45 -43 97 -63 161 -63 98 1
176 57 213 154 44 116 -26 255 -148 291 -60 18 -78 18 -135 0z m125 -157 c15
-14 23 -33 23 -54 0 -46 -9 -63 -42 -80 -58 -30 -122 7 -122 71 0 74 88 113
141 63z"/>
</g>
</svg>
