<?xml version="1.0" standalone="no"?>
<!DOCTYPE svg PUBLIC "-//W3C//DTD SVG 20010904//EN"
 "http://www.w3.org/TR/2001/REC-SVG-20010904/DTD/svg10.dtd">
<svg version="1.0" xmlns="http://www.w3.org/2000/svg"
 width="1000.000000pt" height="244.000000pt" viewBox="0 0 1000.000000 244.000000"
 preserveAspectRatio="xMidYMid meet">
<metadata>
Created by potrace 1.13, written by Peter Selinger 2001-2015
</metadata>
<g transform="translate(0.000000,244.000000) scale(0.100000,-0.100000)"
fill="#818181" stroke="none">
<path d="M2010 2189 c-855 -64 -1452 -312 -1626 -674 -141 -294 -2 -575 382
-772 487 -251 1159 -312 2059 -188 488 68 984 182 1480 342 156 50 197 71 84
43 -245 -60 -797 -164 -1169 -220 -785 -118 -1371 -116 -1875 5 -449 108 -679
279 -693 515 -5 101 20 170 95 250 119 129 268 209 535 286 268 77 536 108
938 108 398 0 685 -29 1070 -109 307 -63 426 -95 726 -192 l201 -65 191 113
c106 63 192 116 192 120 0 13 -265 107 -502 178 -697 208 -1484 306 -2088 260z"/>
<path d="M7640 2183 c-634 -46 -1204 -150 -1810 -327 -118 -34 -392 -127 -355
-120 17 3 93 19 170 35 720 151 1292 240 1737 270 311 21 697 4 1003 -46 569
-92 893 -313 873 -594 -13 -183 -187 -339 -503 -451 -279 -99 -654 -153 -1070
-153 -571 0 -1198 108 -1813 312 l-177 58 -195 -115 c-107 -63 -196 -115 -198
-117 -9 -8 398 -148 573 -197 456 -127 868 -201 1282 -233 771 -58 1533 54
1971 292 393 212 549 542 390 822 -40 70 -163 194 -248 250 -154 100 -388 194
-620 246 -216 49 -391 67 -685 70 -148 1 -295 1 -325 -2z"/>
<path d="M5172 1713 c-21 -18 -21 -18 23 -83 77 -113 88 -98 -225 -308 -149
-100 -278 -182 -288 -182 -26 0 -44 17 -91 88 -23 34 -45 62 -49 62 -4 -1 -17
-9 -30 -20 -18 -15 -21 -22 -12 -37 6 -10 30 -70 54 -133 52 -139 60 -145 186
-145 71 0 92 4 130 25 39 21 42 25 23 28 -13 2 -23 7 -23 12 0 17 41 31 71 25
25 -6 47 5 155 76 124 82 144 100 144 136 0 10 12 26 26 37 l26 19 -7 -34 -7
-33 33 28 c49 41 86 100 98 157 18 84 15 102 -27 140 -84 77 -180 159 -185
159 -3 0 -14 -8 -25 -17z"/>
<path d="M1240 1306 l0 -226 50 0 50 0 0 84 0 84 165 4 c156 3 166 4 187 26
21 20 23 32 23 112 0 80 -2 92 -23 112 -22 22 -29 23 -237 26 l-215 3 0 -225z
m365 84 l0 -55 -132 -3 -133 -3 0 61 0 61 133 -3 132 -3 0 -55z"/>
<path d="M2975 1518 c-3 -8 -4 -108 -3 -223 l3 -210 205 -3 c112 -1 209 -1
215 2 6 2 9 21 7 45 l-4 41 -159 0 -159 0 -2 178 -3 177 -48 3 c-32 2 -49 -1
-52 -10z"/>
<path d="M6370 1490 l0 -40 100 0 100 0 0 -185 0 -185 50 0 50 0 0 185 0 185
100 0 100 0 0 40 0 40 -250 0 -250 0 0 -40z"/>
<path d="M8154 1519 c-18 -5 -36 -19 -42 -34 -16 -35 -16 -325 0 -359 17 -38
61 -46 264 -46 197 0 240 8 255 47 5 13 9 93 9 178 0 85 -4 165 -9 178 -6 14
-23 29 -42 36 -38 13 -389 14 -435 0z m386 -209 l0 -140 -170 0 -170 0 0 140
0 140 170 0 170 0 0 -140z"/>
</g>
</svg>
